<mxfile host="app.diagrams.net" modified="2023-04-01T14:53:46.496Z" agent="Mozilla/5.0 (Windows NT 10.0; Win64; x64) AppleWebKit/537.36 (KHTML, like Gecko) Chrome/111.0.0.0 Safari/537.36" etag="tMUGuQmZacWUWxA8jMfU" version="21.1.2" type="device">
  <diagram name="Página-1" id="Zk1IqN_Y2H1thvaxL-Nz">
    <mxGraphModel dx="2074" dy="1908" grid="1" gridSize="10" guides="1" tooltips="1" connect="1" arrows="1" fold="1" page="1" pageScale="1" pageWidth="827" pageHeight="1169" math="0" shadow="0">
      <root>
        <mxCell id="0" />
        <mxCell id="1" parent="0" />
        <mxCell id="jkyhDTe16xqxCdFZabKr-7" value="" style="edgeStyle=orthogonalEdgeStyle;rounded=0;orthogonalLoop=1;jettySize=auto;html=1;fontFamily=Times New Roman;fontSize=14;" edge="1" parent="1" source="jkyhDTe16xqxCdFZabKr-3" target="jkyhDTe16xqxCdFZabKr-6">
          <mxGeometry relative="1" as="geometry">
            <Array as="points">
              <mxPoint x="140" y="30" />
              <mxPoint x="140" y="30" />
            </Array>
          </mxGeometry>
        </mxCell>
        <mxCell id="jkyhDTe16xqxCdFZabKr-3" value="Usuário" style="shape=image;html=1;verticalAlign=top;verticalLabelPosition=bottom;labelBackgroundColor=#ffffff;imageAspect=0;aspect=fixed;image=https://cdn1.iconfinder.com/data/icons/ionicons-fill-vol-2/512/person-128.png;fontFamily=Times New Roman;fontSize=14;" vertex="1" parent="1">
          <mxGeometry x="20" width="80" height="80" as="geometry" />
        </mxCell>
        <mxCell id="jkyhDTe16xqxCdFZabKr-8" value="" style="edgeStyle=orthogonalEdgeStyle;rounded=0;orthogonalLoop=1;jettySize=auto;html=1;fontFamily=Times New Roman;fontSize=14;" edge="1" parent="1" source="jkyhDTe16xqxCdFZabKr-6" target="jkyhDTe16xqxCdFZabKr-3">
          <mxGeometry relative="1" as="geometry">
            <Array as="points">
              <mxPoint x="140" y="60" />
              <mxPoint x="140" y="60" />
            </Array>
          </mxGeometry>
        </mxCell>
        <mxCell id="jkyhDTe16xqxCdFZabKr-6" value="Aplicativo&amp;nbsp;&lt;br style=&quot;font-size: 14px;&quot;&gt;Web" style="outlineConnect=0;dashed=0;verticalLabelPosition=bottom;verticalAlign=top;align=center;html=1;shape=mxgraph.aws3.internet_gateway;fillColor=#F58534;gradientColor=none;fontFamily=Times New Roman;fontSize=14;" vertex="1" parent="1">
          <mxGeometry x="170" y="4" width="69" height="72" as="geometry" />
        </mxCell>
        <mxCell id="jkyhDTe16xqxCdFZabKr-9" value="Edição de receitas e parâmetros da máquina." style="rounded=0;whiteSpace=wrap;html=1;fontSize=15;align=center;fillColor=#fff2cc;strokeColor=#d6b656;gradientColor=none;horizontal=1;verticalAlign=middle;fontFamily=Times New Roman;" vertex="1" parent="1">
          <mxGeometry x="60" y="-80" width="160" height="70" as="geometry" />
        </mxCell>
        <mxCell id="jkyhDTe16xqxCdFZabKr-13" value="Seleção de receitas e horários para a bebida ficar pronta." style="rounded=0;whiteSpace=wrap;html=1;fontSize=15;align=center;fillColor=#fff2cc;strokeColor=#d6b656;gradientColor=none;horizontal=1;verticalAlign=middle;fontFamily=Times New Roman;" vertex="1" parent="1">
          <mxGeometry x="60" y="114" width="160" height="70" as="geometry" />
        </mxCell>
        <mxCell id="jkyhDTe16xqxCdFZabKr-18" value="" style="edgeStyle=orthogonalEdgeStyle;rounded=0;orthogonalLoop=1;jettySize=auto;html=1;fontFamily=Times New Roman;fontSize=14;" edge="1" parent="1" source="jkyhDTe16xqxCdFZabKr-14" target="jkyhDTe16xqxCdFZabKr-17">
          <mxGeometry relative="1" as="geometry">
            <Array as="points">
              <mxPoint x="490" y="20" />
              <mxPoint x="490" y="20" />
            </Array>
          </mxGeometry>
        </mxCell>
        <mxCell id="jkyhDTe16xqxCdFZabKr-14" value="Esp32" style="shape=image;verticalLabelPosition=bottom;labelBackgroundColor=default;verticalAlign=top;aspect=fixed;imageAspect=0;image=https://cdn.awsli.com.br/600x450/945/945993/produto/35674631/156519c3ae.jpg;fontFamily=Times New Roman;fontSize=14;" vertex="1" parent="1">
          <mxGeometry x="321" y="-15" width="110" height="110" as="geometry" />
        </mxCell>
        <mxCell id="jkyhDTe16xqxCdFZabKr-15" value="Comunicação&lt;br style=&quot;font-size: 14px;&quot;&gt;via wi-fi" style="edgeStyle=orthogonalEdgeStyle;rounded=0;orthogonalLoop=1;jettySize=auto;html=1;fontSize=14;fontFamily=Times New Roman;" edge="1" parent="1">
          <mxGeometry y="-20" relative="1" as="geometry">
            <mxPoint x="239" y="25" as="sourcePoint" />
            <mxPoint x="321" y="25" as="targetPoint" />
            <Array as="points">
              <mxPoint x="270" y="25" />
              <mxPoint x="270" y="25" />
            </Array>
            <mxPoint as="offset" />
          </mxGeometry>
        </mxCell>
        <mxCell id="jkyhDTe16xqxCdFZabKr-16" value="" style="edgeStyle=orthogonalEdgeStyle;rounded=0;orthogonalLoop=1;jettySize=auto;html=1;fontFamily=Times New Roman;fontSize=14;" edge="1" parent="1" source="jkyhDTe16xqxCdFZabKr-14" target="jkyhDTe16xqxCdFZabKr-6">
          <mxGeometry relative="1" as="geometry">
            <mxPoint x="314" y="60" as="sourcePoint" />
            <mxPoint x="244" y="60" as="targetPoint" />
            <Array as="points">
              <mxPoint x="270" y="60" />
              <mxPoint x="270" y="60" />
            </Array>
          </mxGeometry>
        </mxCell>
        <mxCell id="jkyhDTe16xqxCdFZabKr-19" value="" style="edgeStyle=orthogonalEdgeStyle;rounded=0;orthogonalLoop=1;jettySize=auto;html=1;fontFamily=Times New Roman;fontSize=14;" edge="1" parent="1" source="jkyhDTe16xqxCdFZabKr-17" target="jkyhDTe16xqxCdFZabKr-14">
          <mxGeometry relative="1" as="geometry">
            <Array as="points">
              <mxPoint x="490" y="60" />
              <mxPoint x="490" y="60" />
            </Array>
          </mxGeometry>
        </mxCell>
        <mxCell id="jkyhDTe16xqxCdFZabKr-34" style="edgeStyle=orthogonalEdgeStyle;orthogonalLoop=1;jettySize=auto;html=1;exitX=0.75;exitY=0;exitDx=0;exitDy=0;entryX=0;entryY=0.5;entryDx=0;entryDy=0;curved=1;" edge="1" parent="1" source="jkyhDTe16xqxCdFZabKr-17" target="jkyhDTe16xqxCdFZabKr-32">
          <mxGeometry relative="1" as="geometry" />
        </mxCell>
        <mxCell id="jkyhDTe16xqxCdFZabKr-36" value="" style="edgeStyle=orthogonalEdgeStyle;rounded=0;orthogonalLoop=1;jettySize=auto;html=1;" edge="1" parent="1" source="jkyhDTe16xqxCdFZabKr-17" target="jkyhDTe16xqxCdFZabKr-35">
          <mxGeometry relative="1" as="geometry">
            <Array as="points">
              <mxPoint x="730" y="65" />
              <mxPoint x="730" y="65" />
            </Array>
          </mxGeometry>
        </mxCell>
        <mxCell id="jkyhDTe16xqxCdFZabKr-46" style="edgeStyle=orthogonalEdgeStyle;orthogonalLoop=1;jettySize=auto;html=1;exitX=0.5;exitY=1;exitDx=0;exitDy=0;entryX=0;entryY=0.5;entryDx=0;entryDy=0;curved=1;" edge="1" parent="1" source="jkyhDTe16xqxCdFZabKr-17" target="jkyhDTe16xqxCdFZabKr-45">
          <mxGeometry relative="1" as="geometry" />
        </mxCell>
        <mxCell id="jkyhDTe16xqxCdFZabKr-53" style="edgeStyle=orthogonalEdgeStyle;orthogonalLoop=1;jettySize=auto;html=1;exitX=0.5;exitY=1;exitDx=0;exitDy=0;entryX=0;entryY=0.5;entryDx=0;entryDy=0;curved=1;" edge="1" parent="1" source="jkyhDTe16xqxCdFZabKr-17" target="jkyhDTe16xqxCdFZabKr-51">
          <mxGeometry relative="1" as="geometry" />
        </mxCell>
        <mxCell id="jkyhDTe16xqxCdFZabKr-17" value="Arduino mega" style="shape=image;verticalLabelPosition=bottom;labelBackgroundColor=default;verticalAlign=top;aspect=fixed;imageAspect=0;image=https://www.ralcomp.com.br/wp-content/uploads/2016/06/IMG_23062016_131332.png;fontFamily=Times New Roman;fontSize=14;" vertex="1" parent="1">
          <mxGeometry x="520" y="-25" width="195.37" height="130" as="geometry" />
        </mxCell>
        <mxCell id="jkyhDTe16xqxCdFZabKr-21" value="&lt;font face=&quot;Times New Roman&quot; style=&quot;font-size: 14px;&quot;&gt;Checa se há uma &lt;br&gt;caneca na posição&lt;/font&gt;" style="edgeStyle=orthogonalEdgeStyle;orthogonalLoop=1;jettySize=auto;html=1;exitX=0;exitY=0.5;exitDx=0;exitDy=0;entryX=0.5;entryY=0;entryDx=0;entryDy=0;curved=1;" edge="1" parent="1" source="jkyhDTe16xqxCdFZabKr-20" target="jkyhDTe16xqxCdFZabKr-17">
          <mxGeometry x="-0.6907" y="-20" relative="1" as="geometry">
            <mxPoint as="offset" />
          </mxGeometry>
        </mxCell>
        <mxCell id="jkyhDTe16xqxCdFZabKr-20" value="Sensor laser&amp;nbsp;" style="ellipse;whiteSpace=wrap;html=1;fontSize=16;fontFamily=Times New Roman;fillColor=#d5e8d4;strokeColor=#82b366;" vertex="1" parent="1">
          <mxGeometry x="780" y="-420" width="120" height="80" as="geometry" />
        </mxCell>
        <mxCell id="jkyhDTe16xqxCdFZabKr-31" value="" style="edgeStyle=orthogonalEdgeStyle;rounded=0;orthogonalLoop=1;jettySize=auto;html=1;" edge="1" parent="1" source="jkyhDTe16xqxCdFZabKr-23" target="jkyhDTe16xqxCdFZabKr-24">
          <mxGeometry relative="1" as="geometry" />
        </mxCell>
        <mxCell id="jkyhDTe16xqxCdFZabKr-42" style="edgeStyle=orthogonalEdgeStyle;orthogonalLoop=1;jettySize=auto;html=1;exitX=1;exitY=0.5;exitDx=0;exitDy=0;curved=1;entryX=0.25;entryY=0;entryDx=0;entryDy=0;" edge="1" parent="1" source="jkyhDTe16xqxCdFZabKr-23" target="jkyhDTe16xqxCdFZabKr-40">
          <mxGeometry relative="1" as="geometry" />
        </mxCell>
        <mxCell id="jkyhDTe16xqxCdFZabKr-23" value="Reservatórios" style="ellipse;whiteSpace=wrap;html=1;fontSize=16;fontFamily=Times New Roman;fillColor=#d5e8d4;strokeColor=#82b366;" vertex="1" parent="1">
          <mxGeometry x="980" y="-300" width="120" height="80" as="geometry" />
        </mxCell>
        <mxCell id="jkyhDTe16xqxCdFZabKr-26" value="&lt;font style=&quot;font-size: 14px;&quot;&gt;Checa se há pó&lt;br style=&quot;&quot;&gt;nos reservatórios&lt;/font&gt;" style="edgeStyle=orthogonalEdgeStyle;orthogonalLoop=1;jettySize=auto;html=1;exitX=0;exitY=0.5;exitDx=0;exitDy=0;strokeColor=default;curved=1;fontFamily=Times New Roman;fontSize=12;align=center;" edge="1" parent="1" source="jkyhDTe16xqxCdFZabKr-24" target="jkyhDTe16xqxCdFZabKr-17">
          <mxGeometry x="-0.7483" y="-20" relative="1" as="geometry">
            <mxPoint as="offset" />
          </mxGeometry>
        </mxCell>
        <mxCell id="jkyhDTe16xqxCdFZabKr-24" value="Sensor de ultrassom" style="ellipse;whiteSpace=wrap;html=1;fontSize=16;fontFamily=Times New Roman;fillColor=#d5e8d4;strokeColor=#82b366;" vertex="1" parent="1">
          <mxGeometry x="780" y="-300" width="120" height="80" as="geometry" />
        </mxCell>
        <mxCell id="jkyhDTe16xqxCdFZabKr-30" value="" style="edgeStyle=orthogonalEdgeStyle;rounded=0;orthogonalLoop=1;jettySize=auto;html=1;" edge="1" parent="1" source="jkyhDTe16xqxCdFZabKr-28" target="jkyhDTe16xqxCdFZabKr-20">
          <mxGeometry relative="1" as="geometry" />
        </mxCell>
        <mxCell id="jkyhDTe16xqxCdFZabKr-28" value="Encaixe da caneca" style="ellipse;whiteSpace=wrap;html=1;fontSize=16;fontFamily=Times New Roman;fillColor=#d5e8d4;strokeColor=#82b366;" vertex="1" parent="1">
          <mxGeometry x="980" y="-420" width="120" height="80" as="geometry" />
        </mxCell>
        <mxCell id="jkyhDTe16xqxCdFZabKr-33" value="Libera a quantidade&lt;br style=&quot;font-size: 14px;&quot;&gt;necessária de pó" style="edgeStyle=orthogonalEdgeStyle;orthogonalLoop=1;jettySize=auto;html=1;exitX=1;exitY=0.5;exitDx=0;exitDy=0;entryX=0.5;entryY=1;entryDx=0;entryDy=0;curved=1;fontSize=14;fontFamily=Times New Roman;" edge="1" parent="1" source="jkyhDTe16xqxCdFZabKr-32" target="jkyhDTe16xqxCdFZabKr-23">
          <mxGeometry x="-0.4545" y="60" relative="1" as="geometry">
            <mxPoint as="offset" />
          </mxGeometry>
        </mxCell>
        <mxCell id="jkyhDTe16xqxCdFZabKr-32" value="Motor de passo" style="shape=image;verticalLabelPosition=bottom;labelBackgroundColor=default;verticalAlign=top;aspect=fixed;imageAspect=0;image=https://www.rizon.com.br/img/products/motor-de-passo-eixo-y-laser_1_630.jpg;fontFamily=Times New Roman;fontSize=14;" vertex="1" parent="1">
          <mxGeometry x="773.76" y="-180" width="132.48" height="120" as="geometry" />
        </mxCell>
        <mxCell id="jkyhDTe16xqxCdFZabKr-39" value="Libera a quantidade&lt;br style=&quot;font-size: 14px;&quot;&gt;necessária de água" style="edgeStyle=orthogonalEdgeStyle;rounded=0;orthogonalLoop=1;jettySize=auto;html=1;fontFamily=Times New Roman;fontSize=14;" edge="1" parent="1" source="jkyhDTe16xqxCdFZabKr-35" target="jkyhDTe16xqxCdFZabKr-37">
          <mxGeometry x="-0.0286" y="35" relative="1" as="geometry">
            <mxPoint as="offset" />
          </mxGeometry>
        </mxCell>
        <mxCell id="jkyhDTe16xqxCdFZabKr-35" value="Bomba de água" style="shape=image;verticalLabelPosition=bottom;labelBackgroundColor=default;verticalAlign=top;aspect=fixed;imageAspect=0;image=https://cdn.awsli.com.br/600x700/468/468162/produto/19414037be85cd504e.jpg;fontFamily=Times New Roman;fontSize=14;" vertex="1" parent="1">
          <mxGeometry x="775" y="-10" width="130" height="130" as="geometry" />
        </mxCell>
        <mxCell id="jkyhDTe16xqxCdFZabKr-41" style="edgeStyle=orthogonalEdgeStyle;rounded=0;orthogonalLoop=1;jettySize=auto;html=1;exitX=1;exitY=0.5;exitDx=0;exitDy=0;entryX=0;entryY=0.5;entryDx=0;entryDy=0;" edge="1" parent="1" source="jkyhDTe16xqxCdFZabKr-37" target="jkyhDTe16xqxCdFZabKr-40">
          <mxGeometry relative="1" as="geometry">
            <mxPoint x="1400" y="50" as="targetPoint" />
            <Array as="points">
              <mxPoint x="1193" y="50" />
            </Array>
          </mxGeometry>
        </mxCell>
        <mxCell id="jkyhDTe16xqxCdFZabKr-37" value="Termobloco que &#xa;esquenta a água" style="shape=image;verticalLabelPosition=bottom;labelBackgroundColor=default;verticalAlign=top;aspect=fixed;imageAspect=0;image=https://www.maquinasdecafe.net/wp-content/uploads/2019/04/sistema-aquecimento-termobloco_maquinas-cafe.jpg;fontFamily=Times New Roman;fontSize=14;" vertex="1" parent="1">
          <mxGeometry x="1080" y="-10" width="203" height="130" as="geometry" />
        </mxCell>
        <mxCell id="jkyhDTe16xqxCdFZabKr-43" style="edgeStyle=orthogonalEdgeStyle;orthogonalLoop=1;jettySize=auto;html=1;exitX=0.5;exitY=0;exitDx=0;exitDy=0;entryX=1;entryY=0.5;entryDx=0;entryDy=0;curved=1;" edge="1" parent="1" source="jkyhDTe16xqxCdFZabKr-40" target="jkyhDTe16xqxCdFZabKr-28">
          <mxGeometry relative="1" as="geometry" />
        </mxCell>
        <mxCell id="jkyhDTe16xqxCdFZabKr-40" value="Caneca" style="shape=image;html=1;verticalAlign=top;verticalLabelPosition=bottom;labelBackgroundColor=#ffffff;imageAspect=0;aspect=fixed;image=https://cdn3.iconfinder.com/data/icons/essential-pack/32/11-Cup-128.png" vertex="1" parent="1">
          <mxGeometry x="1430" y="-14" width="128" height="128" as="geometry" />
        </mxCell>
        <mxCell id="jkyhDTe16xqxCdFZabKr-47" style="edgeStyle=orthogonalEdgeStyle;orthogonalLoop=1;jettySize=auto;html=1;exitX=1;exitY=0.5;exitDx=0;exitDy=0;entryX=0.25;entryY=1;entryDx=0;entryDy=0;curved=1;" edge="1" parent="1" source="jkyhDTe16xqxCdFZabKr-45" target="jkyhDTe16xqxCdFZabKr-40">
          <mxGeometry relative="1" as="geometry" />
        </mxCell>
        <mxCell id="jkyhDTe16xqxCdFZabKr-45" value="Mixer" style="ellipse;whiteSpace=wrap;html=1;fontSize=16;fontFamily=Times New Roman;fillColor=#d5e8d4;strokeColor=#82b366;" vertex="1" parent="1">
          <mxGeometry x="780" y="170" width="120" height="80" as="geometry" />
        </mxCell>
        <mxCell id="jkyhDTe16xqxCdFZabKr-55" value="&lt;font style=&quot;font-size: 14px;&quot; face=&quot;Times New Roman&quot;&gt;Controla a posição&lt;br&gt;da caneca&lt;/font&gt;" style="edgeStyle=orthogonalEdgeStyle;orthogonalLoop=1;jettySize=auto;html=1;exitX=1;exitY=0.5;exitDx=0;exitDy=0;curved=1;entryX=0.25;entryY=1;entryDx=0;entryDy=0;" edge="1" parent="1" source="jkyhDTe16xqxCdFZabKr-50" target="jkyhDTe16xqxCdFZabKr-40">
          <mxGeometry x="-0.6653" y="50" relative="1" as="geometry">
            <mxPoint x="1460" y="120" as="targetPoint" />
            <mxPoint as="offset" />
          </mxGeometry>
        </mxCell>
        <mxCell id="jkyhDTe16xqxCdFZabKr-50" value="Base móvel&amp;nbsp;" style="ellipse;whiteSpace=wrap;html=1;fontSize=16;fontFamily=Times New Roman;fillColor=#d5e8d4;strokeColor=#82b366;" vertex="1" parent="1">
          <mxGeometry x="1100" y="310" width="120" height="80" as="geometry" />
        </mxCell>
        <mxCell id="jkyhDTe16xqxCdFZabKr-52" value="" style="edgeStyle=orthogonalEdgeStyle;rounded=0;orthogonalLoop=1;jettySize=auto;html=1;" edge="1" parent="1" source="jkyhDTe16xqxCdFZabKr-51" target="jkyhDTe16xqxCdFZabKr-50">
          <mxGeometry relative="1" as="geometry" />
        </mxCell>
        <mxCell id="jkyhDTe16xqxCdFZabKr-51" value="Motor de passo" style="shape=image;verticalLabelPosition=bottom;labelBackgroundColor=default;verticalAlign=top;aspect=fixed;imageAspect=0;image=https://www.rizon.com.br/img/products/motor-de-passo-eixo-y-laser_1_630.jpg;fontFamily=Times New Roman;fontSize=14;" vertex="1" parent="1">
          <mxGeometry x="773.76" y="290" width="132.48" height="120" as="geometry" />
        </mxCell>
      </root>
    </mxGraphModel>
  </diagram>
</mxfile>
